<svg xmlns="http://www.w3.org/2000/svg" viewBox="0 0 165 41.45"><defs><style>.cls-1{fill:#5b5b5b;}.cls-2{fill:#0d0d0d;}.cls-3{fill:#555;}.cls-4{fill:#d5d5d5;}.cls-5{fill:#e9e9e9;}.cls-6{fill:#101010;}.cls-7{fill:#1d1d1d;}.cls-8{fill:#9a9a9a;}.cls-9{fill:#151515;}.cls-10{fill:#262626;}.cls-11{fill:#121212;}.cls-12{fill:#111;}.cls-13{fill:#cdcdcd;}.cls-14{fill:#272727;}.cls-15{fill:#1f1f1f;}.cls-16{fill:#3e3e3e;}.cls-17{fill:#ececec;}.cls-18{fill:#404040;}.cls-19{fill:#3a3a3a;}.cls-20{fill:#5c5c5c;}.cls-21{fill:#282828;}.cls-22{fill:#343434;}.cls-23{fill:#2a2a2a;}.cls-24{fill:#161616;}.cls-25{fill:#232323;}.cls-26{fill:#4f4f4f;}.cls-27{fill:#636363;}.cls-28{fill:#b2b2b2;}.cls-29{fill:#737373;}.cls-30{fill:#494949;}.cls-31{fill:#292929;}.cls-32{fill:#373737;}.cls-33{fill:#757575;}.cls-34{fill:#747474;}.cls-35{fill:#777;}.cls-36{fill:#565656;}.cls-37{fill:#7b7b7b;}.cls-38{fill:#7c7c7c;}.cls-39{fill:#0f0f0f;}.cls-40{fill:#585858;}.cls-41{fill:#8e8e8e;}.cls-42{fill:#f7f7f7;}.cls-43{fill:#f6f6f6;}.cls-44{fill:#202020;}.cls-45{fill:#3c3c3c;}.cls-46{fill:#595959;}.cls-47{fill:#999;}.cls-48{fill:#454545;}.cls-49{fill:#0e0e0e;}.cls-50{fill:#cecece;}.cls-51{fill:#cfcfcf;}.cls-52{fill:#d1d1d1;}.cls-53{fill:#2d2d2d;}.cls-54{fill:#313131;}.cls-55{fill:#2b2b2b;}.cls-56{fill:#7f7f7f;}.cls-57{opacity:0.23;}.cls-58{fill:#6d6e71;}.cls-59{fill:#231f20;}</style></defs><title>Asset 2</title><g id="Layer_2" data-name="Layer 2"><g id="Layer_1-2" data-name="Layer 1"><path class="cls-1" d="M13,33.79c.07-.06.23,0,.2-.17s.17-.47.39-.6.44-.23.66-.34a.92.92,0,0,1,.47-.46c.55-.28,1.09-.6,1.63-.91a.56.56,0,0,0,.31-.61,11.81,11.81,0,0,1,.06-2.91c0-.33,0-.36-.33-.43a2.61,2.61,0,0,1-.77-.22c-.1-.05-.18-.1-.18-.23s.11-.19.22-.22a4.91,4.91,0,0,1,1-.14,2.76,2.76,0,0,0-.9-.17h-.8c-.38,0-.52-.08-.63-.44a1.17,1.17,0,0,0-.46-.59.69.69,0,0,1-.32-.47,4.61,4.61,0,0,1-.08-1.05.46.46,0,0,0-.24-.47.69.69,0,0,1-.27-.66,15.79,15.79,0,0,1,0-1.91A16.15,16.15,0,0,0,13,22.94a1,1,0,0,1,0,.24.22.22,0,0,1-.14.22.24.24,0,0,1-.22-.09,2,2,0,0,1-.36-.5,13.41,13.41,0,0,1-1-2.07c-.15-.42-.11-.49.3-.62a3.34,3.34,0,0,0,.89-.65l.34-.28c.45-.33.55-.33,1,0a.75.75,0,0,1,0,.42,8.21,8.21,0,0,0,.12,2.32.46.46,0,0,0,.56.41A16.06,16.06,0,0,0,16.53,22c.27-.06.56-.12.58-.49a5.87,5.87,0,0,1,.12-.95.41.41,0,0,1,0-.11.18.18,0,0,1,0-.09c.13-.13.25,0,.38,0a2.21,2.21,0,0,1,.6.41.91.91,0,0,0,.33.22,4.55,4.55,0,0,0,.83.81.88.88,0,0,1,.33.36.28.28,0,0,0,.3.15c.34.11.49-.2.73-.32a1.38,1.38,0,0,1,.39-.18c.25,0,.3-.29.48-.41s.23,0,.34-.07.24-.07.34-.17a.86.86,0,0,1,.74-.29.27.27,0,0,1,.18.05c.16.14.06.31,0,.46s-.15.49-.2.75a.51.51,0,0,0,.23.56,9,9,0,0,0,2.25,1.1.69.69,0,0,0,.95-.33,9.2,9.2,0,0,0,.87-1.6c.09-.19.12-.46.42-.48.48-.07.7.09.76.54-.39.85-.79,1.71-1.12,2.6a2.27,2.27,0,0,1-.21.41c0,.07-.08.13-.17.1a.16.16,0,0,1-.1-.18.45.45,0,0,0,0-.3,1.21,1.21,0,0,1-.4,1.25,3.14,3.14,0,0,0-.77,1c-.13.26-.41.25-.65.3a10.16,10.16,0,0,1-3.06.19s0,0,0,0c.24.05.4.14.1.33a.59.59,0,0,0-.28.52c-.05,1-.14,2-.24,2.93,0,.45,0,.59.43.79.67.33,1.37.59,2,.94l.14.07c.51.29.57.38.48,1A1.09,1.09,0,0,0,25,34.92c.18.17,0,.39,0,.58a2.08,2.08,0,0,1-2,.62c-.93-.32-1.92-.4-2.86-.69a6.9,6.9,0,0,0-2.64-.09c-.56,0-1.12.06-1.67.12a2.46,2.46,0,0,0-1.08,0,2.16,2.16,0,0,1-.36,0c-.22,0-.34-.3-.59-.26a.51.51,0,0,1-.42-.4A1.7,1.7,0,0,0,13,33.79Z"/><path class="cls-2" d="M28.79,12.51a.75.75,0,0,1-.05.8,1.64,1.64,0,0,0-.38-.63,2.11,2.11,0,0,1-.57,1.38c-.05-.37.06-.74-.25-1.05a2.78,2.78,0,0,1-.65,1.4V14a.64.64,0,0,0,0-.47.54.54,0,0,1,0-.41,1.3,1.3,0,0,0-.09-.56c0-.13-.12-.22-.27-.1a.73.73,0,0,0-.31.24,1.76,1.76,0,0,1-.8.65c-.13,0-.24,0-.28-.12s0-.19.12-.26c.28-.24.28-.24.07-.55-.1-.14,0-.26,0-.38a1.94,1.94,0,0,0,0-1.28c-.33.17-.4.14-.56-.18a4.93,4.93,0,0,1-.19-.54c-.12,0-.15.08-.2.14s-.28.35-.51.26-.12-.33-.11-.52a1.57,1.57,0,0,0-.15-1.44c-.07-.15-.18-.19-.32-.08A7.17,7.17,0,0,0,22,9.6a.65.65,0,0,0,0,.72c-.1.29-.14.31-.45.15a2.94,2.94,0,0,1-.48-.93c0,.15,0,.28-.2.31a.22.22,0,0,1-.17,0,2.32,2.32,0,0,1-.24-1.58,2.42,2.42,0,0,0-.75.63c-.12.16-.24.33-.07.54a.19.19,0,0,1,0,.18c-.1.22-.26.17-.42.09s-.1-.12-.15-.19-.12-.2-.22-.18,0,.18-.06.26c-.1.25-.26.22-.45.11s-.27-.11-.32.14a1.37,1.37,0,0,0,0,.49c.06.24,0,.33-.27.29s-.27.08-.3.25a1.78,1.78,0,0,0,0,.4c0,.19,0,.37-.16.5s-.06.14-.06.23-.09.3-.31.18a2.32,2.32,0,0,1-.62-.83c-.2,0-.27.12-.34.25a2.25,2.25,0,0,0-.2.67c0,.12,0,.23-.17.26a2.89,2.89,0,0,1-1.46,0,4.45,4.45,0,0,0,.73-.39,1,1,0,0,0,.37-.59c0-.17,0-.23-.19-.16a1.3,1.3,0,0,0-.69.74,1.88,1.88,0,0,1,.36-1.66c-.53,0-1,0-1.27-.52,0-.13.08-.11.12-.08.6.36,1.07,0,1.54-.28a1.49,1.49,0,0,0,.14-.12c.25-.22.39-.18.47.15l0,.08c0-.09.18-.24.09-.36s-.27-.07-.4-.13a1.16,1.16,0,0,1-.58-.49.29.29,0,0,1,0-.32c.09-.11.2-.08.32,0a1.56,1.56,0,0,0,1.7-.5.4.4,0,0,0-.26.12.22.22,0,0,1-.31,0,.23.23,0,0,1-.05-.31,1.9,1.9,0,0,1,.62-.76c.27-.18.28-.19,0-.42a.87.87,0,0,1-.3-.72c0-.25,0-.51,0-.77s0-.21.16-.24.19,0,.26.12.2.3.31.43a.57.57,0,0,0,.54.24c.15,0,.24,0,.25-.24s.16-.37.39-.22a.38.38,0,0,0,.41,0A1.85,1.85,0,0,1,20,4.9a.34.34,0,0,1,.26.14,1.18,1.18,0,0,0-.81-.66.17.17,0,0,1-.15-.2.23.23,0,0,1,.18-.2A1.41,1.41,0,0,1,20.79,4l.33.18a1.92,1.92,0,0,1-.95-.85c-.08-.13-.18-.28,0-.42s.24,0,.36.06.13.08.2.06c.46-.1.77.18,1.09.41s.44.28.45.59c0,.15.16.16.27.15a.71.71,0,0,1,.83.52c0,.11.17.16.23.28a.07.07,0,0,0,.1,0,.09.09,0,0,0,0-.1s0-.09-.06-.09c-.45,0-.45-.4-.54-.68a2.36,2.36,0,0,1,0-.92A.22.22,0,0,1,23.22,3c.1,0,.18,0,.24.1a1.25,1.25,0,0,0,.67.42.71.71,0,0,1,.43.38,1,1,0,0,0-.14-.26.2.2,0,0,1,0-.28.23.23,0,0,1,.31,0,1.36,1.36,0,0,1,.51,1.15,3.14,3.14,0,0,1-.15.74,3.14,3.14,0,0,0,.14-.49.16.16,0,0,1,.14-.14.2.2,0,0,1,.21.1,1.52,1.52,0,0,1-.38,1.85.29.29,0,0,1-.44-.11c.12.27.09.34-.19.41.16,0,.28-.08.43-.07s.38.13.25.38c0,.07-.07.14,0,.2a1.22,1.22,0,0,1,.25.62c.08-.12,0-.24,0-.36s0-.29.12-.34.23.09.27.22a2.08,2.08,0,0,0,.31.57A2.14,2.14,0,0,1,26.53,10a2.7,2.7,0,0,0,.07-.91c0-.11,0-.21.11-.26s.21,0,.29.11a4.15,4.15,0,0,1,.42.71,1.15,1.15,0,0,0-.77-1.2c-.21-.07-.27-.19-.16-.38a.7.7,0,0,0-.1-.88c-.05,0-.08-.12-.13-.17a.21.21,0,0,1,0-.26.21.21,0,0,1,.23-.12c.21,0,.41,0,.62,0a.59.59,0,0,1,.52.33,8.61,8.61,0,0,1,.49.83c.11.34.09.45-.22.65-.11.08-.07.16,0,.24a2.79,2.79,0,0,1,.1,1.91c0,.05,0,.09,0,.14a5.62,5.62,0,0,0,.72,1.4A.49.49,0,0,1,28.79,12.51Z"/><path class="cls-3" d="M28.79,12.51A2.57,2.57,0,0,1,28,11.26c-.07-.26-.12-.47-.49-.26a1.4,1.4,0,0,0,.41-1.14,2.05,2.05,0,0,0-.3-1.28c-.06-.08-.16-.19-.06-.3a.24.24,0,0,1,.29,0c.17.08.17,0,.17-.14a1.21,1.21,0,0,0-.19-.52c-.13-.21-.27-.42-.41-.62a.37.37,0,0,0-.32-.17l-.81,0c.43.45.74.88.29,1.47.64.06.85.53,1,1a.85.85,0,0,1-.15.86,3.2,3.2,0,0,0-.66-1.28,1.82,1.82,0,0,1-.45,1.64c.05-.26.08-.43.11-.61A2,2,0,0,0,26,8.14a2.44,2.44,0,0,1-.35-.68A1.16,1.16,0,0,0,25.8,8c0,.08.06.19,0,.23a.72.72,0,0,1-.37.11c-.1,0-.06-.16-.06-.25,0-.29,0-.55-.35-.69-.17-.07-.11-.18,0-.25s.16-.08.31-.16c-.42-.11-.84.19-1.16-.17.1-.11.23-.06.35-.06s.3-.09.17-.33-.14-.2-.25-.35a1,1,0,0,1,.43.29c.16.16.28.12.42,0a1.34,1.34,0,0,0,.15-1.63c-.06.4-.13.77-.62.93.25-.66.53-1.26.12-1.88a.58.58,0,0,0-.45-.35,1.1,1.1,0,0,1,.21,1c-.14-.06-.13-.2-.18-.29a.67.67,0,0,0-.43-.42,1.34,1.34,0,0,1-.81-.55,2.7,2.7,0,0,0,.2,1.6c.14-.14.26-.32.44-.12s0,.64-.11.69-.32.09-.38-.15c-.16-.66-.35-.81-1-.81h-.22c-.13,0-.24,0-.14-.19a.29.29,0,0,0-.13-.42l-.63-.45A.39.39,0,0,0,21,3.22.79.79,0,0,1,20.21,3a1.86,1.86,0,0,0,.85,1c.07,0,.18.06.21.12s.26.32.13.43-.17-.14-.26-.23a1.53,1.53,0,0,0-1.68-.22c0,.11.12.09.19.12.3.1.62.17.68.57,0,.19.25.27.37.4-.08.09-.13,0-.18,0a1.46,1.46,0,0,0-1.66,0c-.28.19-.37-.06-.51-.24-.15.26,0,.4.14.6-.34-.12-.68.14-1-.06s-.43-.52-.65-.78a1.51,1.51,0,0,0,.68,1.9A1.79,1.79,0,0,0,16.32,7.9c.26-.15.45-.26.65-.36s.21-.12.28,0-.05.18-.11.25a1.92,1.92,0,0,1-1.59.76A4,4,0,0,1,15,8.41c.06.48.45.69,1.3.67a5.11,5.11,0,0,0-.3.46.44.44,0,0,0,.06.53c-.3,0-.36-.13-.48-.65-.14,0-.19.11-.27.19a2.26,2.26,0,0,1-.91.5,1.24,1.24,0,0,1-.9-.21c-.12-.1-.13-.24-.21-.46a1.49,1.49,0,0,0,.57.38.67.67,0,0,0,.55-.21A2.55,2.55,0,0,1,13,7.84a2.51,2.51,0,0,0,.93.3.59.59,0,0,0,.63-.28,1.61,1.61,0,0,1,1-.75,1.75,1.75,0,0,0-.94,0c-.08,0-.17.13-.24,0s0-.19.07-.26a1.67,1.67,0,0,1,.72-.54,1.06,1.06,0,0,0-1.09.1,1,1,0,0,1,.55-.78c.46-.19.56-.42.37-.89a2,2,0,0,1,0-1.24c.14.25.25.48.38.69a1.11,1.11,0,0,0,.58.52,2.58,2.58,0,0,1,0-2.27,1.67,1.67,0,0,0,.34.76.54.54,0,0,0,.8.12A2,2,0,0,1,18.38,3,2.07,2.07,0,0,0,17,2.49c.39-.48.84-.52,1.93-.17A2.84,2.84,0,0,1,19.41,0c.06.34.09.64.17.94.13.46.29.57.73.56a1.75,1.75,0,0,1,1.29.29A2.41,2.41,0,0,1,22.19,0a2.2,2.2,0,0,0,.16,1.2c.19-.26.24-.62.65-.76-.21.72-.12,1.31.59,1.64A2,2,0,0,1,24.16.72a.51.51,0,0,1,0,.36.84.84,0,0,0,.51.91,1.73,1.73,0,0,0,.31.14,1.47,1.47,0,0,1,1.21,1.43,1.27,1.27,0,0,0,.2-1.26,1.07,1.07,0,0,1,.68,1.21c0,.17-.15.34-.05.48s.29,0,.44.09a1.46,1.46,0,0,1,1.17,1.27A1.19,1.19,0,0,0,27.52,5a1.37,1.37,0,0,1,.61,1c0,.09.12.11.19.14a1.85,1.85,0,0,0,1.38.13,1.34,1.34,0,0,1-1,.92,1.15,1.15,0,0,1,.84,1.56,1.11,1.11,0,0,0-.81-.59,1,1,0,0,1,.36.75c0,.12.11.17.18.24a1.13,1.13,0,0,1,.23,1.34,4.26,4.26,0,0,0-.35-.38.56.56,0,0,0-.55-.12c.45.36.43,1.13,1.25,1.13a1.14,1.14,0,0,1-.79.24,1.16,1.16,0,0,0,1.13.31A2.36,2.36,0,0,1,28.79,12.51Z"/><path class="cls-4" d="M26.33,12.27a.37.37,0,0,1,.52.29,3.09,3.09,0,0,1,0,1.45l0-.35a3.59,3.59,0,0,1-1,1.4.49.49,0,0,1-.66.08c-.23-.15-.36-.11-.52.13a7.77,7.77,0,0,1-1.12,1.1c-.09.09-.22.15-.27.29a.2.2,0,0,1-.14.19c-.24.09-.45.24-.69.32a2.87,2.87,0,0,1-.87.13c-.17,0-.25-.12-.35-.22a3.78,3.78,0,0,0-.57-.49c-.3,0-.5.19-.74.29a.47.47,0,0,1-.4.07,1.83,1.83,0,0,1-.69-.33.16.16,0,0,1-.09-.2c.11-.14-.06-.15-.11-.19a3.79,3.79,0,0,1-1.2-1.7c-.07-.19-.12-.34-.38-.25s-.35,0-.39-.25a1.11,1.11,0,0,0-.37-.59,2.26,2.26,0,0,1-.67-.95,1.89,1.89,0,0,1,.54-1.4c.19-.17.27-.12.3.11a.78.78,0,0,1-.15.57.89.89,0,0,0,.09,1.17.6.6,0,0,0,.23.16c.1,0,.21.07.28,0s-.07-.15-.14-.19c-.26-.16-.2-.38-.13-.61a.28.28,0,0,1,.38-.21l.14.07c-.18-.6-.16-.65.21-.58a2,2,0,0,1,0-1.09c0-.16.08-.32.28-.1a1,1,0,0,0,.29.18,1.09,1.09,0,0,1,.23-1.36c.1.19.15.39.37.45s.11,0,.1-.09,0-.22.09-.28.17,0,.23.1a1,1,0,0,0,.25.17c.1,0,.2.17.3,0a1,1,0,0,1,.48-1c.16-.07.26,0,.32.12a.83.83,0,0,1,.06.35,1.11,1.11,0,0,0,.34.72l.11.08a.39.39,0,0,1,.39.22,1.22,1.22,0,0,0,.34.34c.1,0,.28.31.26-.07a1.22,1.22,0,0,1,.41-1,7.37,7.37,0,0,1,.8-.68c.25-.17.4-.13.57.12a1.34,1.34,0,0,1,.2.6c0,.21,0,.41,0,.62s-.13.26,0,.42c.38-.16.54-.54.83-.86A2.12,2.12,0,0,0,25,10.82a1.78,1.78,0,0,1,.12-.54,1.8,1.8,0,0,1,.16,2.07c.14.09.22-.08.37-.07a.83.83,0,0,1-.55.91c.07.09.14.06.21.05s.24,0,.3.18a.46.46,0,0,1-.29.61,5.05,5.05,0,0,1,.53.08c.17.07.3,0,.38-.19a1.3,1.3,0,0,0,.09-1.45A.18.18,0,0,1,26.33,12.27Z"/><path class="cls-5" d="M1.36,15.12A9.41,9.41,0,0,1,2,13.87a.25.25,0,0,0,0-.24.66.66,0,0,1,.16-.74c.81-.94,1.47-2,2.2-3A3.46,3.46,0,0,1,5.28,9a.66.66,0,0,1,.13-.08c.83-.19,1.65-.53,2.48,0a1.24,1.24,0,0,0,.5.13,7.9,7.9,0,0,1,2.13.62c.29.13.29.46.27.74,0,.1-.08.2,0,.3-.15.44-.54.55-.92.64s-.65-.32-.89-.6c.52.68.52.95,0,1.25s-.89.3-1.07-.16c.15.31.13.57,0,.72a.8.8,0,0,1-1,.08,6.18,6.18,0,0,1-1-1.46,1.35,1.35,0,0,0,.16.38.29.29,0,0,1-.1.45.52.52,0,0,0-.25.4,6,6,0,0,1-.4,1.31,1.94,1.94,0,0,1-1.28,1,.41.41,0,0,1-.5-.15c0-.05-.11-.12-.18-.08s0,.14,0,.22a.52.52,0,0,0,.41.45,1.67,1.67,0,0,1,.84.51c.33.33.71.62,1,1a1.49,1.49,0,0,0,.2.15c.36.24.53.21.76-.16.07-.1.11-.23.28-.18a4.38,4.38,0,0,1,.13.82,1.51,1.51,0,0,1-.86.84,3.92,3.92,0,0,1-4.61-.56.44.44,0,0,1-.12-.51c.11-.44.26-.87.35-1.31A.53.53,0,0,0,1.36,15.12Z"/><path class="cls-5" d="M27.18,33.74c-.06-.15-.07-.34-.29-.38s-.06-.11-.07-.18.19-.13.31-.15a1.18,1.18,0,0,0,.51-.08,5.1,5.1,0,0,1-.88-.52,4.48,4.48,0,0,1-1.5-2.5c-.21-.69-.41-1.38-.67-2.06a.84.84,0,0,1-.07-.54.14.14,0,0,1,.09-.08,6.36,6.36,0,0,1,1.78-.38c.32,0,.63-.07.95-.07s.62.14.68.54a2.49,2.49,0,0,0,.94.73c.15.07.29.17.31.32a1.19,1.19,0,0,0,.84.95,4.47,4.47,0,0,1,1.14,1.73.64.64,0,0,0,.42.43c.27.09.53.2.79.3a.76.76,0,0,1,.51.7,2.9,2.9,0,0,1-.75,2.35.72.72,0,0,1-.37.27,1.11,1.11,0,0,0-.65,0,5.81,5.81,0,0,1-.59,0,1,1,0,0,1-1.05-1.4c.11-.37.24-.73.37-1.09-.15.43-.53.58-.89.74a3.72,3.72,0,0,1-1.09.23A2.56,2.56,0,0,0,27.18,33.74Z"/><path class="cls-6" d="M8.13,26.22a1.47,1.47,0,0,1-.88,0c-.21,0-.44-.08-.53.18-.39,1-1.34,1.1-2.22,1.3S3.31,27.43,2.85,27A7.21,7.21,0,0,1,2.13,26,.84.84,0,0,1,2.26,25c.15-.14.34-.11.49.11a4.79,4.79,0,0,0,1,1,4.51,4.51,0,0,1-.9-.88.91.91,0,0,1-.18-.52,16.05,16.05,0,0,1,0-1.7.44.44,0,0,0-.29-.52l-.08,0a.24.24,0,0,1-.11-.32c.06-.13.18-.12.29-.07a6.69,6.69,0,0,0,1.6.33,2.09,2.09,0,0,0,1.68-.51,1.08,1.08,0,0,1,.31-.19.22.22,0,0,1,.28.05.2.2,0,0,1,0,.26.38.38,0,0,0-.07.35,1.1,1.1,0,0,1-.19,1l-.31.44c.27-.31.45-.74.73-1.1a.44.44,0,0,0,0-.5c-.09-.17-.07-.32.13-.4s.61-.14.82-.42a.23.23,0,0,1,.39,0,8.73,8.73,0,0,1,.84,1.18,2.46,2.46,0,0,1,.06,1.69.62.62,0,0,1-.17.45.36.36,0,0,0-.12.3c0,.27-.2.44-.26.69A1.47,1.47,0,0,0,8.13,26.22Z"/><path class="cls-1" d="M25,41.43l-3.9-.14L14.27,41c-.35,0-.7,0-1-.06,0,0-.11-.08-.1-.14a2.35,2.35,0,0,1,.24-1.28A1.21,1.21,0,0,0,14,38.45a2.23,2.23,0,0,1,.05-.36c.07-.35.2-.43.52-.29s.79.36,1.19.52a10,10,0,0,0,2.79.71,4.52,4.52,0,0,0,1-.08c.94-.16,1.87-.4,2.78-.65.58-.12,1.18-.14,1.76-.29a.45.45,0,0,1,.32.06,1.87,1.87,0,0,1,.26.91c.11.64.23,1.28.35,1.92C25.1,41.08,25.18,41.27,25,41.43Z"/><path class="cls-7" d="M13.65,19.21a.65.65,0,0,0-.84.12c-.33.29-.67.56-1,.83-.09.08-.18.17-.3.15-.3,0-.25.12-.19.3a9.81,9.81,0,0,0,.83,1.69,4.82,4.82,0,0,0,.66,1,13.16,13.16,0,0,1,.11-3.07c.1.08.05.17.05.25a20.66,20.66,0,0,0,.08,2.08c0,.3,0,.65.43.76.12,0,.1.21.11.33a6.24,6.24,0,0,0,.07,1.14c.05.27.14.47.47.48.1,0,.33,0,.13.22s0,.11.07.13l.36.09c-.26.16-.19.3-.06.49s.13.06.2.06a7.63,7.63,0,0,1,1.51.05,2.24,2.24,0,0,1,.68.21c.08,0,.16.09.14.18s-.13.08-.21.07a4.18,4.18,0,0,0-1.17.05c-.08,0-.19,0-.27.14a2.33,2.33,0,0,0,1.06.28c.29,0,.37.1.31.39a10.15,10.15,0,0,0-.07,3.3.35.35,0,0,1-.21.4l-2.39,1.37c0-.55,0-1.11,0-1.67a.93.93,0,0,1,.6-.5,1,1,0,0,0,.69-1.1c0-.88,0-.77-.72-1a.91.91,0,0,1-.57-.34,3.54,3.54,0,0,1,0-.46,3,3,0,0,0-.36-1.6,3.67,3.67,0,0,1-.26-.65c-.08-.31-.39-.37-.63-.51a18.75,18.75,0,0,1-2.77-2.34s0-.06,0-.09a1.73,1.73,0,0,0-.21-1c0-.14-.2-.17-.34-.18a1.69,1.69,0,0,0-.9.24,1.12,1.12,0,0,1-.49.18c-.16-.18-.43-.32-.27-.64a5.74,5.74,0,0,1,2-.73c.21-.06.34-.12.29-.36s0-.22.18-.22a.45.45,0,0,1,.16,0,1.33,1.33,0,0,0,1.35-.53,5.5,5.5,0,0,1,.69-.57,1.66,1.66,0,0,1,1.21-.36l.05,0A.86.86,0,0,1,13.65,19.21Z"/><path class="cls-6" d="M27.93,27.47a.17.17,0,0,1-.11-.14c0-.36-.19-.42-.49-.39s-.61,0-.92,0c-.08,0-.17.06-.22,0s0-.15,0-.22A1.94,1.94,0,0,1,27.31,26c.42-.14.79-.36,1.21-.5l.49-.17c.18-.06.43-.09.4-.38a23.46,23.46,0,0,0-.94-2.71c0-.07-.07-.14,0-.22-.1-.41-.2-.49-.68-.49a.41.41,0,0,1,.26-.62c.62,0,.91.33,1.14.84.35.77.83,1.48,1.15,2.26a.69.69,0,0,1,0,.73c-.11.16,0,.2.13.19l.21,0c.55,0,.84.22.77.75a2,2,0,0,0,.51,1.67,4,4,0,0,1,.43.75c.11.23.15.49.48.52.12,0,.17.14.22.24a1.89,1.89,0,0,1,.17.66c0,.18.08.24.25.29a1.56,1.56,0,0,1,1.12.92.25.25,0,0,1,.13.17.54.54,0,0,0,.43.47c.14,0,.2.17.23.3a21.51,21.51,0,0,1,.41,2.51.52.52,0,0,1-.06.3,5.4,5.4,0,0,1-1.09,1.38c-.1.1-.21.21-.38.16a.63.63,0,0,0-1,.06,1,1,0,0,1-1.15.05c-.12-.11,0-.22.06-.27a3.89,3.89,0,0,0,.88-.79,2.46,2.46,0,0,0,1.11-1.12A1.83,1.83,0,0,0,34,32.45c0-.11-.15-.1-.24-.12-.13-.32-.43-.6-.19-1a.38.38,0,0,0,0-.41,6.44,6.44,0,0,0-1.25-1.5c-.21-.19-.48-.13-.74-.1a1.59,1.59,0,0,0-.78.05.59.59,0,0,1-.32.09.24.24,0,0,1-.16-.09,1,1,0,0,1,.85-1c.32,0,.36-.06.2-.33s-.34-.52-.49-.79a1,1,0,0,0-1.13-.44,4.9,4.9,0,0,0-1.15.45.32.32,0,0,0-.31.13A.29.29,0,0,1,27.93,27.47Z"/><path class="cls-8" d="M6.7,16.47a.22.22,0,0,0,0,.08c-.36.73-.65.79-1.27.24-.4-.36-.79-.73-1.18-1.1a1.26,1.26,0,0,0-.7-.37.52.52,0,0,1-.45-.41c0-.15-.1-.3-.15-.44s-.08-.16,0-.23.18,0,.26,0a.67.67,0,0,1,.3.22.36.36,0,0,0,.52.1,1.79,1.79,0,0,0,1.15-1.2A6.31,6.31,0,0,0,5.44,12c0-.12,0-.19.16-.16.33.07.25-.12.14-.27a.77.77,0,0,1,0-.9,4.47,4.47,0,0,0,1,1.65c.26.35.5.38.89.17.24-.14.29-.4.15-.77a.7.7,0,0,1-.08-.3l.29.39c.23.28.52.29.91,0a.49.49,0,0,0,.2-.76C9,11,9,10.86,8.87,10.74a1.08,1.08,0,0,1-.17-.34l.38.41a.92.92,0,0,0,1.47,0c0-.06.09-.15.19-.11a.3.3,0,0,1,0,.46c-.17.19-.31.41-.48.6s-.12.19,0,.29l.08.1c.54.78.62.86-.21,1.72a1.64,1.64,0,0,1-.82.41c-.14,0-.3.07-.4,0-.34-.29-.48,0-.65.2a.81.81,0,0,1-.69.35c-.35,0-.71,0-1.06.05A2.21,2.21,0,0,1,6.7,16.47Z"/><path class="cls-9" d="M25,41.43c-.18-1-.37-2-.55-3,0-.11,0-.22-.07-.33a.67.67,0,0,1-.4-.55c-.05-.46-.15-.54-.62-.46-.87.16-1.74.21-2.61.32a.62.62,0,0,1-.48-.08,1.26,1.26,0,0,1-.08-.64c0-.35-.14-.47-.5-.48s-.7,0-1.05,0c-.14,0-.3,0-.3-.22s.27-.13.42-.13h1.55a3,3,0,0,0,.89-.08c.26-.08.5.07.76.08s.66.09,1,.09a2,2,0,0,0,1.86-.55c0-.06.07-.15.14-.17.33-.12.44-.39.55-.7s.25-.36.7-.07l.4,0a1.2,1.2,0,0,1,1.05.89,29.73,29.73,0,0,1,1,4s0,.11,0,.14-.12,0-.16,0a1.29,1.29,0,0,1-.19-.32.59.59,0,0,0-.45-.33,3.94,3.94,0,0,0-1.14.07c-.23,0-.21.22-.17.39.14.54.27,1.08.4,1.63a.49.49,0,0,1,0,.41c-.19.12-.4,0-.6.06Z"/><path class="cls-9" d="M13.47,39.58a5.26,5.26,0,0,0-.25,1.36,7.6,7.6,0,0,1-1.65-.06c-.09,0-.18-.07-.28-.1a.5.5,0,0,1-.18-.55c0-.18.07-.36.11-.54a2.19,2.19,0,0,0-.1-1.24,1.16,1.16,0,0,1-.08-.69l.13-.53c0-.17.12-.14.21-.1s.34,0,.4-.23S12,36.26,12,36a2.37,2.37,0,0,1,.18-.53.59.59,0,0,1,.72-.38,3.68,3.68,0,0,1,.88.15.66.66,0,0,1,.38.14c.22.12.44,0,.66,0a13,13,0,0,1,2.24.32.31.31,0,0,1,.26.36,11.13,11.13,0,0,0-.19,1.82.48.48,0,0,1-.08.35c-.11.08-.19,0-.28,0a2,2,0,0,0-1.25-.37,4,4,0,0,1-1.19-.12c-.32-.07-.34,0-.44.3a3.57,3.57,0,0,0-.25,1.2C13.67,39.34,13.49,39.42,13.47,39.58Z"/><path class="cls-7" d="M26.22,34.48c-.47-.13-.57-.08-.64.4,0,.25-.14.4-.41.41a.71.71,0,0,0-.34.13c.11-.24.13-.45-.16-.59a.37.37,0,0,1-.15-.36c0-.3,0-.59.06-.89a.45.45,0,0,0-.28-.52c-.77-.43-1.59-.74-2.39-1.11a.63.63,0,0,1-.43-.69c.08-.84.15-1.69.21-2.53,0-.25,0-.49,0-.74s0-.55.44-.54a3,3,0,0,1-.68-.33,15.42,15.42,0,0,0,2.55,0c.38,0,.76-.1,1.13-.16a.68.68,0,0,0,.56-.42,2.44,2.44,0,0,1,.66-.77,1.31,1.31,0,0,0,.48-1.13v-.09c0-.14,0-.34.12-.39s.15.09.13.19-.07.12-.07.17a1.14,1.14,0,0,0,.05.48l.21-.48c.08,0,.12,0,.15.08s-.06.37-.09.56-.07.21,0,.29.17,0,.25-.06a5,5,0,0,1,1.43-.49.75.75,0,0,1,.47,0c0,.43,0,.38-.49.55a20.83,20.83,0,0,0-2.25.92,1.31,1.31,0,0,0-.49.5c-.07.1.06.07.09.09a10.46,10.46,0,0,0-1.82.43,9.19,9.19,0,0,1-.82,1.3c-.84.19-.84.19-1,1.05a8.08,8.08,0,0,0-.09.86.67.67,0,0,0,.42.68c.26.12.5.25.76.36a.62.62,0,0,1,.13.24.47.47,0,0,0,.86.08c.11-.13.17-.36.39-.25s.24.29.18.53,0,.49,0,.74a1,1,0,0,0,.48,1.16A2.05,2.05,0,0,1,26.22,34.48Z"/><path class="cls-5" d="M27.24,20.12c0,.19.16.13.26.15s.11.2.07.33a17,17,0,0,1-1.08,2.6,2.9,2.9,0,0,1-.19.29.53.53,0,0,1-.7.22A9.6,9.6,0,0,1,24,22.92a5.09,5.09,0,0,1-.5-.3.54.54,0,0,1-.28-.68,7.22,7.22,0,0,0,.28-1.11c0-.15.13-.2.24-.25l.51-.23a2,2,0,0,0,1.1-.93c.06-.11.11-.23.26-.23a3.77,3.77,0,0,1,1.41.53C27.14,19.8,27.16,20,27.24,20.12Z"/><path class="cls-8" d="M23.72,28.59a6,6,0,0,1,.6-1,2.78,2.78,0,0,1,.27-.21c.5,1.18.71,2.45,1.24,3.61a3.32,3.32,0,0,0,2.07,1.84c.09,0,.24,0,.23.15s-.16.1-.26.11l-1.05.06c-.56,0-.66-.07-.88-.61-.09-.2-.32-.16-.44-.34-.08.28,0,.54-.1.77,0-.17,0-.35,0-.52a.81.81,0,0,0-.26-.7.78.78,0,0,1-.48.57.51.51,0,0,1-.76-.28,3,3,0,0,1-.12-.32A10.41,10.41,0,0,1,23,30.63a.64.64,0,0,1,.14-.84.53.53,0,0,0,.21-.43A.78.78,0,0,1,23.72,28.59Z"/><path class="cls-7" d="M6.7,21.82c-.11.08-.09.17,0,.26.22.27.1.51-.08.73s-.5.6-.73.92-.34.2-.6.25c.17-.19.41-.18.52-.36.27-.45.55-.89.29-1.44-.11-.22.07-.3.23-.46a.71.71,0,0,0-.51.17,2.56,2.56,0,0,1-2.51.43,2.58,2.58,0,0,1-1-.3c.07.25.23.26.35.31a.39.39,0,0,1,.25.47,11.19,11.19,0,0,0,0,1.83.78.78,0,0,0,.17.45,5.18,5.18,0,0,0,1.31,1.29c0,.09-.09.06-.12,0a5.11,5.11,0,0,1-1.54-1.27c-.11-.18-.22-.15-.32,0a.79.79,0,0,0,0,.85c.16.35.42.62.59,1a7,7,0,0,1-1-1.15.53.53,0,0,1,0-.66,3.15,3.15,0,0,0,.31-1.86A.65.65,0,0,0,2,22.93a2.69,2.69,0,0,1-.37-1.42c0-.13.09-.2.2-.24s.36-.14.55-.21a1.84,1.84,0,0,0,0-.62c0-.21.08-.28.28-.21a.72.72,0,0,1,.14.49c0,.21,0,.41,0,.62,0,.44.07.52.5.6A7.72,7.72,0,0,0,4.45,22a2,2,0,0,0,1.47-.75A.37.37,0,0,0,6,20.85a2.41,2.41,0,0,1-.1-.76c.1-.27.3-.26.53-.2l.19.25c.31.31.22.75.33,1.12A.6.6,0,0,1,6.7,21.82Z"/><path class="cls-8" d="M27.18,33.74c0-.23.08-.33.33-.32a4,4,0,0,0,1.19-.16c.68-.19.77-.27,1.33-1.11a2.28,2.28,0,0,1-.22,1.27,1.37,1.37,0,0,0,0,1,.54.54,0,0,0,.58.44,8.12,8.12,0,0,1,1.48.08c0,.17-.13.22-.23.25a7.45,7.45,0,0,1-2.53.26.9.9,0,0,1-.23-.08A10.62,10.62,0,0,1,27.29,34,.44.44,0,0,1,27.18,33.74Z"/><path class="cls-5" d="M6.46,19.89a.86.86,0,0,0-.45.24c0,.16-.17.22-.31.27a5,5,0,0,1-1.76.23c-.21,0-.41,0-.62,0s-.46,0-.59-.27-.26,0-.26.18.08.38-.05.55c0-.52,0-.91-.67-1.1A2.16,2.16,0,0,1,.32,18.67c0-.07-.11-.12-.17-.17A.34.34,0,0,1,0,18.06a10.1,10.1,0,0,1,.67-1.59c.06-.1.07-.3.27-.18s.05.3,0,.43c-.12.3-.2.61-.29.92a.64.64,0,0,0,.1.63,3.65,3.65,0,0,0,2.68,1.47,4.27,4.27,0,0,0,3.19-.9c.08-.07.16-.14.27-.07a.29.29,0,0,1,0,.48,1.92,1.92,0,0,1-.45.45C6.43,19.74,6.37,19.8,6.46,19.89Z"/><path class="cls-5" d="M33.1,35.11a3.88,3.88,0,0,1-1,.86c-.07,0,0,.07,0,.12a1.9,1.9,0,0,0-.75.11A2.41,2.41,0,0,1,29.61,36c.27-.18.58-.1.87-.15s.79-.09,1.19-.14A1.88,1.88,0,0,0,33,34.87a3.48,3.48,0,0,0,.53-2.79.54.54,0,0,0-.29-.36c-.28-.15-.59-.23-.86-.39-.08,0-.17-.07-.23-.15a2.08,2.08,0,0,0-.76-1.67c-.07-.08-.23-.14-.18-.26s.21-.05.33-.07.08,0,.11,0a1.18,1.18,0,0,1,1.18.5,9.29,9.29,0,0,1,1,1.28c.11.22.2.45-.08.62-.09.06,0,.12,0,.18s.13.35.2.52a1,1,0,0,1,.33,1.11A3.07,3.07,0,0,1,33.1,35.11Z"/><path class="cls-10" d="M27,41.38c-.27-.75-.4-1.53-.61-2.3-.05-.21,0-.32.26-.31a3.94,3.94,0,0,0,.77-.06c.6-.08,1.07,0,1.24.72a0,0,0,0,0,0,0s0,0,0,0a3.72,3.72,0,0,1,.16.72c0,.18-.08.28-.2.35A12.44,12.44,0,0,1,27,41.38Z"/><path class="cls-5" d="M1.11,16c0-.06,0-.12,0-.18s.14-.28.32-.13.09.18.06.29c-.09.35-.2.7-.28,1.06a.62.62,0,0,0,.28.8,4.62,4.62,0,0,0,2.21.9,3.17,3.17,0,0,0,1.43-.23,5.36,5.36,0,0,0,1.24-.63c.1-.07.21-.2.35-.06s.06.31.18.42a1.45,1.45,0,0,1-.87.94,4.44,4.44,0,0,1-3.75.19A4,4,0,0,1,.81,18.21a.65.65,0,0,1-.13-.59A15.83,15.83,0,0,0,1.11,16Z"/><path class="cls-11" d="M25.58,19.27a3.29,3.29,0,0,1-2,1.56c-.06.14-.15.23-.32.18H23a.21.21,0,0,1,0-.32,1.44,1.44,0,0,1,.57-.55,6.08,6.08,0,0,0,.62-.33c.18-.11.34-.24.31-.49a.18.18,0,0,1,.05-.07,2.58,2.58,0,0,1,.54-.45c.3-.18.3-.31.06-.58s-.4-.26-.47-.52a.73.73,0,0,1,0-.39,8.85,8.85,0,0,0,.17-1c0-.14.11-.21.2-.3a.53.53,0,0,1,.55-.32.77.77,0,0,1,.62.52.54.54,0,0,1,.08.33,13.16,13.16,0,0,1-.41,2.42A.46.46,0,0,1,25.58,19.27Z"/><path class="cls-12" d="M17.62,20.51l-.29-.12c-.24,0-.39-.13-.55-.25a4.14,4.14,0,0,1-1.11-1.54c-.1-.23,0-.48-.06-.71s0-.3,0-.45c0-.36.06-.72.06-1.08a2.11,2.11,0,0,1,.2-1.26.61.61,0,0,1,.78-.48c.27.06.14.28.17.43a.43.43,0,0,1,.15.43,6.38,6.38,0,0,0-.07.87,1.8,1.8,0,0,1-.38.35.56.56,0,0,0-.22.78,1.25,1.25,0,0,0,.24.4,1.43,1.43,0,0,1,.37.76.52.52,0,0,0,.37.42,1.16,1.16,0,0,1,.49,1.15C17.76,20.33,17.75,20.45,17.62,20.51Z"/><path class="cls-13" d="M23.21,21a.42.42,0,0,1,.32-.18c.11.21,0,.4-.05.6-.25.91-.36.85.41,1.28a13.8,13.8,0,0,0,1.73.84.44.44,0,0,0,.6-.2A9,9,0,0,0,27,21.78c.18-.5.36-1,.53-1.51.29,0,.47.07.44.39a.3.3,0,0,0,.07.23l-.26.62c-.21.42-.42.85-.64,1.27a5.8,5.8,0,0,1-.63,1,.67.67,0,0,1-.74.25,8.49,8.49,0,0,1-2.69-1.3.39.39,0,0,1-.17-.4C22.92,21.87,23.14,21.46,23.21,21Z"/><path class="cls-14" d="M13.79,35.29l-.92-.1a.42.42,0,0,0-.5.27,12.84,12.84,0,0,0-.5,1.74c-.09.31-.1.33-.38.17-.1-.06-.18-.18-.32-.14a.4.4,0,0,1-.19-.52c.17-.67.32-1.34.47-2,.05-.27.14-.47.47-.39a.11.11,0,0,0,.13-.06,1.14,1.14,0,0,1,1.36.49.66.66,0,0,0,.37.31C13.88,35.12,14,35.2,13.79,35.29Z"/><path class="cls-15" d="M25,16c-.07.47-.14.93-.22,1.39a.6.6,0,0,0,0,.35c-.12.26-.4.25-.61.35A5,5,0,0,1,23,18.4a3.06,3.06,0,0,1-.51.1,1,1,0,0,1-.63-1.07.94.94,0,0,1,.53-.2,1,1,0,0,0,.73-.5.21.21,0,0,1,.18-.07c.58.22.75.19,1.08-.32A.72.72,0,0,1,25,16Z"/><path class="cls-15" d="M16.82,16.37a1.23,1.23,0,0,1,0-.63c0-.23,0-.46,0-.69a.45.45,0,0,1,.46.28,2.17,2.17,0,0,0,1.45,1.09l.81.44c.12.13,0,.22-.07.31a3.31,3.31,0,0,0-.76.78c0,.1-.17.1-.27.12a1.06,1.06,0,0,1-.53-.31,6.09,6.09,0,0,1-1-1C16.82,16.63,16.71,16.52,16.82,16.37Z"/><path class="cls-1" d="M14.22,28.09l1.24.37a.22.22,0,0,1,.18.25v1.36a.34.34,0,0,1-.21.32c-.41.2-.81.41-1.21.62Z"/><path class="cls-16" d="M1.11,16c.13.08,0,.18,0,.27C1,16.7.92,17.15.8,17.6a.54.54,0,0,0,.15.53,3.83,3.83,0,0,0,3.46,1.36,4,4,0,0,0,1.89-.63A6.55,6.55,0,0,0,7,18.22c0,.18.08.37,0,.55a4.27,4.27,0,0,1-6.27-.4.6.6,0,0,1-.11-.66c.15-.47.29-.94.43-1.42A.49.49,0,0,1,1.11,16Z"/><path class="cls-17" d="M30.36,29.33l.12.06c.28.05.41.32.64.45.24.4.52.79.75,1.19s.46.33.71.43c1.05.42.94.39,1,1.49a3.12,3.12,0,0,1-1.17,2.5,1.31,1.31,0,0,1-.7.31,12.31,12.31,0,0,1-2.19.21,1.67,1.67,0,0,1-.39-.36c.08-.14.21-.1.33-.09A12,12,0,0,0,31,35.39a2.08,2.08,0,0,0,1.62-1.15,3,3,0,0,0,.28-1.94.52.52,0,0,0-.35-.43c-.29-.13-.59-.25-.88-.36a.66.66,0,0,1-.44-.45,4.1,4.1,0,0,0-1-1.54.18.18,0,0,1-.06-.13C30.23,29.31,30.28,29.28,30.36,29.33Z"/><path class="cls-7" d="M34.25,36a9.69,9.69,0,0,0,1.17-1.31,1.26,1.26,0,0,0,.14-1.06c-.09-.6-.2-1.19-.3-1.78,0-.22-.11-.38-.37-.41s-.32-.16-.31-.39,0-.22,0-.34a.89.89,0,0,1,1.17.68A9.86,9.86,0,0,1,36,34.48a.13.13,0,0,1,0,.06,4.52,4.52,0,0,1-1.47,1.51C34.43,36.12,34.33,36.05,34.25,36Z"/><path class="cls-18" d="M6.77,17.8A6.81,6.81,0,0,1,5,18.72a3.68,3.68,0,0,1-3.26-.56c-1-.62-.73-.5-.57-1.38.07-.38.24-.73.29-1.11,0-.07,0-.16,0-.19-.24-.09-.12-.23-.08-.36.28-.1.47.07.4.38-.11.51-.24,1-.38,1.5a.42.42,0,0,0,.17.53,4.06,4.06,0,0,0,2.81.94,3.89,3.89,0,0,0,2.28-1l.19-.15C6.81,17.46,6.92,17.65,6.77,17.8Z"/><path class="cls-15" d="M8.13,26.22,8,26.16c-.08,0-.17,0-.18-.13s.07-.11.13-.16a1.72,1.72,0,0,0,.4-.74c.12-.29.22-.59.33-.89.09,0,.12.1.14.18,0,.24.19.3.4.28a7.74,7.74,0,0,0,2.41-.59c.16-.05.25.06.35.14s.41.3.5.56a12.44,12.44,0,0,1-3.59.54c-.3,0-.49.06-.5.41A.53.53,0,0,1,8.13,26.22Z"/><path class="cls-19" d="M30.24,29.39A3.65,3.65,0,0,1,31.35,31a.59.59,0,0,0,.37.4l1,.41a.52.52,0,0,1,.35.43A3,3,0,0,1,32.26,35a2,2,0,0,1-1.11.49,10.6,10.6,0,0,1-2,.13.46.46,0,0,1-.26-.19,8.39,8.39,0,0,0,2.45-.22,1.27,1.27,0,0,0,.54-.21,2.56,2.56,0,0,0,.89-2.79.49.49,0,0,0-.33-.3l-.9-.33a.5.5,0,0,1-.34-.36A4.14,4.14,0,0,0,30,29.43a.08.08,0,0,1,0-.09C30.12,29.27,30.18,29.32,30.24,29.39Z"/><path class="cls-20" d="M25.58,19.27a13.19,13.19,0,0,0,.56-2.85,2,2,0,0,1,.05-.24c.32.07.32.32.31.56,0,.52-.07,1.05-.11,1.57a.82.82,0,0,0,.34.81c.1.07.17.16.26.22a.61.61,0,0,1,.25.78A5.67,5.67,0,0,0,25.58,19.27Z"/><path class="cls-21" d="M11,37.76a2.42,2.42,0,0,0,.12.35,2.52,2.52,0,0,1,.18,1.79,1.55,1.55,0,0,0-.05.88,1.18,1.18,0,0,1-.4-.17.6.6,0,0,1-.4-.77A10.13,10.13,0,0,1,11,37.76Z"/><path class="cls-22" d="M29.51,36a6.82,6.82,0,0,1,1-.12l1.08-.16a1.67,1.67,0,0,0,1.09-.64,3.35,3.35,0,0,0,.77-2.74.65.65,0,0,0-.42-.56c-1.24-.48-1.24-.45-1.72-1.41A2.36,2.36,0,0,0,31,29.9c0-.12.07-.11.13-.09a.55.55,0,0,0,.28.07.53.53,0,0,1,.28.31,8.4,8.4,0,0,1,.51.93l1.06.51a.51.51,0,0,1,.32.35,3.42,3.42,0,0,1-.89,3.37,1.27,1.27,0,0,1-.68.41,12.57,12.57,0,0,1-2.37.28Z"/><path class="cls-1" d="M15.77,17.47a.84.84,0,0,1-.07.44.31.31,0,0,1-.3.21,1.65,1.65,0,0,0-.62.18,1,1,0,0,1-.85.09s-.09-.08-.15-.11h0a1.17,1.17,0,0,1,.94-1.06,1.73,1.73,0,0,0,.7-.42c.08-.08.16-.17.29-.13s.09.17.09.27A1.82,1.82,0,0,1,15.77,17.47Z"/><path class="cls-12" d="M12.43,24.81c-.37-.09-.52-.46-.83-.63a.34.34,0,0,1-.39-.13,17.5,17.5,0,0,1-1.33-1.51c-.08-.11-.24-.22-.15-.41a.16.16,0,0,1,.21-.07c.18.06.31.16.3.37l1.68,1.47.92.78c.06.05.16.08.11.19Z"/><path class="cls-20" d="M15.88,15.1l-.05,1.31a4.89,4.89,0,0,1-.46.45c-.12.11-.25.29-.46.12a5.62,5.62,0,0,0,.1-.7A1.1,1.1,0,0,1,15.88,15.1Z"/><path class="cls-23" d="M6.7,21.82a.36.36,0,0,1,0-.27,1.42,1.42,0,0,0-.08-1.3s0-.07,0-.11c.34.21.24.57.33.93.34-.39.64-.1,1,0a1,1,0,0,0,.32.56c.34.18.5.64.3.87a6.68,6.68,0,0,0-.6-.93c-.22-.25-.25-.26-.42,0a.24.24,0,0,1-.24.12c-.1,0-.22,0-.27.1S6.82,21.93,6.7,21.82Z"/><path class="cls-24" d="M13.41,34.73a.8.8,0,0,1-.25-.11,2.21,2.21,0,0,0-1.11-.38c0-.29.21-.38.45-.41l.46,0c.25,0,.36.14.41.36A2.88,2.88,0,0,1,13.41,34.73Z"/><path class="cls-25" d="M14.91,17a1,1,0,0,0,.48-.31.74.74,0,0,1,.44-.26c-.07.35.09.71-.06,1.06,0-.22.11-.54-.06-.65s-.31.23-.51.31-.29.2-.48.1Z"/><path class="cls-5" d="M13.9,18.22c.07,0,.15-.09.2,0,.18.25.36.11.53,0a3.32,3.32,0,0,1,1.07-.28A3.42,3.42,0,0,0,17,20.13c.11.1.23.17.35.26l0,.06c-.2.1-.21.29-.21.48,0,.61,0,.86-.91,1l-1.68.21c-.4,0-.53-.05-.62-.44a6.18,6.18,0,0,1-.1-1.29C13.79,19.67,13.94,19,13.9,18.22Z"/><path class="cls-15" d="M17.26,36c-.08-.2-.24-.21-.42-.26-.42-.13-.9,0-1.29-.31-.12-.1-.3,0-.45,0a3.38,3.38,0,0,1-.95-.06.09.09,0,0,1,.13,0h.37c.37-.08.75,0,1.12-.06.82,0,1.65-.1,2.47-.17a6.5,6.5,0,0,1,2.06.19L23,36a5.23,5.23,0,0,1-1.58,0c-.19,0-.39.09-.6.08H18.38A1.07,1.07,0,0,1,17.26,36Z"/><path class="cls-26" d="M21.73,21.51a.8.8,0,0,1-.65.53,1.15,1.15,0,0,0-.47.33c-.18.16-.37.29-.62.13a.58.58,0,0,1-.22-.54,11.24,11.24,0,0,1,.06-1.42.8.8,0,0,1,.09-.3.54.54,0,0,1,.49-.19,5.31,5.31,0,0,0,1.64-.2.32.32,0,0,1,.34.09.23.23,0,0,1,.07.27A5.28,5.28,0,0,1,22,21.3.45.45,0,0,1,21.73,21.51Z"/><path class="cls-15" d="M14.8,33.57a7.38,7.38,0,0,0,1.54-.77.85.85,0,0,1,.47-.12c1.46,0,2.91-.09,4.37-.06a4.26,4.26,0,0,1,1.07,0A27.83,27.83,0,0,1,14.8,33.57Z"/><path class="cls-13" d="M13.9,18.22c.19.09.23.2.2.44A9.86,9.86,0,0,0,14,21.58c.06.38.14.43.51.38l1.75-.21c.54-.06.65-.18.66-.72,0-.24,0-.47,0-.71.15,0,.22.12.33.13v.07a5.16,5.16,0,0,0,0,1,.5.5,0,0,1-.41.52,14.75,14.75,0,0,1-2.66.42c-.36,0-.44-.24-.5-.51a8.68,8.68,0,0,1-.12-2.44l0-.34.13-.93Z"/><path class="cls-27" d="M20,20.27c0,.57-.07,1.14-.07,1.72a1.43,1.43,0,0,0,.07.51s-.09,0-.11,0c-.47-.45-.92-.91-1.38-1.36a2.45,2.45,0,0,1-.5-1.42.37.37,0,0,1,.13-.44.24.24,0,0,1,.23,0A4.92,4.92,0,0,0,19.8,20a.41.41,0,0,1,.2.14A.08.08,0,0,1,20,20.27Z"/><path class="cls-28" d="M18.19,19.33c-.15.37,0,.71.1,1.06a5.13,5.13,0,0,0,.21.74l-.88-.62c0-.12,0-.24,0-.36a1,1,0,0,0-.51-1,.82.82,0,0,1,.09-.85c.13-.19.3-.36.45-.54a.3.3,0,0,1,.33-.11l.43.32c.09,0,.21.07.17.21a8.39,8.39,0,0,1-.33,1.08S18.22,19.31,18.19,19.33Z"/><path class="cls-29" d="M21.73,21.51A3.13,3.13,0,0,0,22.35,20a12.52,12.52,0,0,1-.17-1.5c-.05-.2.2-.11.29-.17l.49-.08a.13.13,0,0,1,.12,0,1.41,1.41,0,0,1,.6,1.44.29.29,0,0,1-.21.11c-.5.07-.7.44-.89.84a1.88,1.88,0,0,1-.4.7c-.06,0-.1.12-.2.1S21.83,21.57,21.73,21.51Z"/><path class="cls-30" d="M22,21.45a3.82,3.82,0,0,0,.54-1,1.16,1.16,0,0,1,1.07-.77,1.1,1.1,0,0,1,1.05-.3c0,.36-.22.54-.51.69a2,2,0,0,0-1,.7A.49.49,0,0,0,23,21a3.64,3.64,0,0,0-.66.32C22.28,21.42,22.16,21.56,22,21.45Z"/><path class="cls-31" d="M27.38,24.61l-.06-.11A22.35,22.35,0,0,1,28.43,22l.12.14c-.18.82-.68,1.51-.93,2.3C27.59,24.54,27.54,24.67,27.38,24.61Z"/><path class="cls-32" d="M14.28,35.35h-.13l-.36-.07c.09-.08,0-.16,0-.25C14,35,14.13,35.23,14.28,35.35Z"/><path class="cls-32" d="M15.77,35.29a4.22,4.22,0,0,1-1.12.06A4.68,4.68,0,0,1,15.77,35.29Z"/><path class="cls-5" d="M17.31,21.56a2.28,2.28,0,0,1,0-1A4,4,0,0,1,17.31,21.56Z"/><path class="cls-33" d="M26.33,12.27a1.46,1.46,0,0,1-.21,2,.23.23,0,0,1-.31,0,.3.3,0,0,0-.44,0c-.17.15-.22,0-.21-.11s-.13-.44.25-.44c.16,0,.12-.31-.09-.52a2.16,2.16,0,0,0,.76-.71A.69.69,0,0,1,26.33,12.27Z"/><path class="cls-34" d="M17,12.05a.52.52,0,0,0-.29.48c0,.13.05.24.2.21s.25.07.24.24,0,.35-.28.35a1,1,0,0,1-.9-1.21,1.55,1.55,0,0,1,.31-.63.56.56,0,0,0,.16-.29A2.67,2.67,0,0,0,17,12.05Z"/><path class="cls-33" d="M23.85,10a3.29,3.29,0,0,0-.31-1.1c-.14-.21-.26-.25-.47-.08a3.39,3.39,0,0,0-1.22,1.48A.8.8,0,0,1,22,9.4a12.57,12.57,0,0,1,1.33-1.3c.09-.08.16-.12.24,0A2.4,2.4,0,0,1,23.85,10Z"/><path class="cls-35" d="M20.75,9.7a1.11,1.11,0,0,1-.51-.9c0-.07,0-.16,0-.19s-.15.05-.21.1a1.13,1.13,0,0,0-.43.82.51.51,0,0,1,0-.66,3.31,3.31,0,0,1,1.17-1A2.33,2.33,0,0,0,20.75,9.7Z"/><path class="cls-36" d="M21.43,7.19c0-.18.06-.37.11-.54a.78.78,0,0,1,1.09-.59c.06,0,.13,0,.14.09s-.05.1-.1.14l-.11,0a1.59,1.59,0,0,0-1,.89Z"/><path class="cls-3" d="M18.25,7.22c-.2-.58.11-.89,1-1.08A3,3,0,0,0,18.25,7.22Z"/><path class="cls-37" d="M21.59,10.34c-.32-.08-.49-.37-.73-.56.13-.21,0-.52.32-.72A1.65,1.65,0,0,0,21.59,10.34Z"/><path class="cls-38" d="M19.25,9.52a.32.32,0,0,1-.28-.1c-.18-.18-.25-.07-.29.11-.13-.13-.07-.26,0-.38s.15-.19.25,0A3.57,3.57,0,0,0,19.25,9.52Z"/><path class="cls-39" d="M18.67,4.61c-.28-.12-.51,0-.75.11-.55.16-.93-.11-1-.81.25.52.63.49,1,.46A.81.81,0,0,1,18.67,4.61Z"/><path class="cls-39" d="M25.83,6.48c.22-.65.61-.91,1.19-.8.13,0,.1.11,0,.18a1,1,0,0,1-.45.31A2,2,0,0,0,25.83,6.48Z"/><path class="cls-12" d="M25.94,5.71c.07-.39-.12-.77,0-1.15,0-.08,0-.19.12-.2s.12.12.14.21A1.19,1.19,0,0,1,25.94,5.71Z"/><path class="cls-40" d="M22.47,18.35c-.12,0-.18.1-.14.27a2.88,2.88,0,0,1,0,1.4.36.36,0,0,0-.27,0,4.35,4.35,0,0,1-1.6.2,1,1,0,0,0-.49.07V20.2a.54.54,0,0,1-.14-.54,17,17,0,0,1,.46-2.74,1.51,1.51,0,0,1,.14-.35c.06-.09.12-.22.28-.15l.81.76c.17.05.37.07.39.31A1,1,0,0,0,22.47,18.35Z"/><path class="cls-41" d="M20.73,16.42c-.11,0-.15.09-.17.19A15.1,15.1,0,0,0,20,20.2a3.39,3.39,0,0,1-1.8-.87,3.34,3.34,0,0,1,.25-1.08c0-.1.1-.19,0-.28a.28.28,0,0,0,.11,0,3.36,3.36,0,0,1,1-1s0-.06,0-.09a5,5,0,0,0,.85-.4C20.51,16.42,20.6,16.31,20.73,16.42Z"/><path class="cls-42" d="M19.29,14.14c.17-.25.44-.16.66-.18a8.47,8.47,0,0,1,2.46.13,1.36,1.36,0,0,1,.51.22c.17.2.08.34-.11.45a.48.48,0,0,1-.33.06c-.93-.08-1.86-.06-2.79-.17a.6.6,0,0,1-.37-.14A.23.23,0,0,1,19.29,14.14Z"/><path class="cls-43" d="M23.11,15.22c-.1.37-.43.46-.73.55a3.53,3.53,0,0,1-2.48,0,1.36,1.36,0,0,1-.84-.72c-.08-.27.09-.27.27-.24l.06,0a3.39,3.39,0,0,0,3.15.29,1.32,1.32,0,0,1,.39-.1C23.05,15,23.14,15.07,23.11,15.22Z"/><path class="cls-35" d="M21.93,17.49c-.18,0-.26-.21-.39-.31a4.25,4.25,0,0,0,1.56-.45.5.5,0,0,1-.49.6C22.38,17.37,22.16,17.43,21.93,17.49Z"/><path class="cls-6" d="M19.31,14.92c-.13,0-.26-.09-.25.13a.57.57,0,0,1-.29-.59c0-.21.19-.3.37-.38s.11,0,.15.06a.47.47,0,0,0,.09.28C19.44,14.6,19.52,14.78,19.31,14.92Z"/><path class="cls-12" d="M23.11,15.22c0-.11-.12-.11-.2-.12a.33.33,0,0,1-.14-.43c.16-.07.14-.22.15-.36.51.12.65.5.34.89C23.21,15.26,23.16,15.27,23.11,15.22Z"/><path class="cls-15" d="M30.06,29.33l0,.1c-.11-.07-.23-.17-.36-.15-.29,0-.39-.09-.41-.35a1.91,1.91,0,0,0-.11-.41.48.48,0,0,0-.32-.33,2.35,2.35,0,0,1-.91-.72c.2-.14.34-.39.63-.37a7.64,7.64,0,0,0,1,1,3.82,3.82,0,0,1,.57.81C30.19,29,30.25,29.21,30.06,29.33Z"/><path class="cls-1" d="M8.56,22.5c0-.33-.24-.56-.3-.87a2.09,2.09,0,0,1,1.48-.5c.19,0,.33.07.37.26.07.35.31.67.13,1a1.05,1.05,0,0,0-.47-.29,13.9,13.9,0,0,0,1.83,2c-.08.18-.26.21-.41.26a7.86,7.86,0,0,1-2.2.42c-.41,0-.41,0-.37-.4,0-.08,0-.15,0-.22s0-.35.07-.51A1.81,1.81,0,0,0,8.56,22.5Z"/><path class="cls-15" d="M13.47,39.58a7.25,7.25,0,0,1,.15-1.24,2,2,0,0,0,.17-.62c0-.23.17-.37.38-.29a6.67,6.67,0,0,0,1.83.24,1.08,1.08,0,0,1,1,.54,11.55,11.55,0,0,1,1.32.11c.51.07,1,0,1.52.07.29,0,.34-.22.45-.4a.86.86,0,0,1,.63,0c.42.08.84,0,1.26,0s.4.13.22.45a17.66,17.66,0,0,1-3.45.73,6.22,6.22,0,0,1-2.48-.44A14.56,14.56,0,0,1,14.56,38c-.3-.14-.32-.13-.36.2a.65.65,0,0,0,0,.19A1.2,1.2,0,0,1,13.47,39.58Z"/><path class="cls-14" d="M22.41,38.45c0-.15.06-.3-.24-.28a11.71,11.71,0,0,1-1.45-.05,1.4,1.4,0,0,1-.35-.1.47.47,0,0,1,0-.68l2.58-.29.74-.1c.37-.06.46,0,.47.39a1.3,1.3,0,0,0,.25.81c-.31,0-.59.11-.9.14A10.23,10.23,0,0,0,22.41,38.45Z"/><path class="cls-44" d="M21.91,40.07a13.08,13.08,0,0,0-1.65.22A6,6,0,0,1,17.44,40a5.24,5.24,0,0,0-.79-.15.93.93,0,0,1-.41-.16,18.63,18.63,0,0,0,3.24.09A9.93,9.93,0,0,1,22,40C22,40.07,22,40.1,21.91,40.07Z"/><path class="cls-45" d="M21.91,40.07,22,40a8.53,8.53,0,0,0,1.13,0A1.74,1.74,0,0,1,21.91,40.07Z"/><path class="cls-1" d="M30.06,29.33a1.64,1.64,0,0,0-.55-1c-.26-.29-.56-.54-.85-.81-.11-.1-.2-.21-.1-.37a2.55,2.55,0,0,1,1.91-.45.5.5,0,0,1,.31.18c.32.45.62.92.9,1.4.12.21.07.34-.17.29-.69-.14-1,.28-1.15.81l-.12.06Z"/><path class="cls-1" d="M27.38,24.61c.3-.75.62-1.49,1-2.22,0-.1.07-.21.2-.25a20.83,20.83,0,0,1,.8,2c.08.27.14.54.2.81a.72.72,0,0,1-.38.1,4.25,4.25,0,0,0-1.61.6c-.1.07-.22.17-.34.1s0-.22,0-.33A4.25,4.25,0,0,1,27.38,24.61Z"/><path class="cls-46" d="M33.1,35.11c.23-.38.43-.78.68-1.14a1.81,1.81,0,0,0,.06-1.72.43.43,0,0,1,.46.4,4.3,4.3,0,0,1,.09,1.07.36.36,0,0,1,0,.21A2.85,2.85,0,0,1,33.1,35.11Z"/><path class="cls-47" d="M32.17,31.12c-.2,0-.26-.19-.34-.33s-.33-.55-.49-.82a2.15,2.15,0,0,1-.58-.45.2.2,0,0,1,0-.25,1.78,1.78,0,0,1,.88-.12l-.33.08a5,5,0,0,1,.82,1A1.1,1.1,0,0,1,32.17,31.12Z"/><path class="cls-48" d="M30.72,29.27l.62.7s0,.11,0,.14-.1,0-.13-.08-.08-.17-.21-.13a3.94,3.94,0,0,1-.49-.51Z"/><path class="cls-49" d="M20.36,37.34V38c0,.55-.07.56-.63.53-.76,0-1.52-.08-2.27-.15-.18,0-.36,0-.46-.19a12.17,12.17,0,0,1,.12-1.91c0-.11,0-.21.13-.26h1.12a4.79,4.79,0,0,0,1.31.06c.67,0,.67,0,.67.66Z"/><path class="cls-10" d="M25.52,36.21a1,1,0,0,1,.06-.18.86.86,0,0,1,1.14-.1,2,2,0,0,0,.86.63.36.36,0,0,1,.27.31,2.94,2.94,0,0,0,.21.61c.05.16,0,.29-.13.36a16.77,16.77,0,0,1-1.64.57c-.12,0-.2,0-.24-.14A13.25,13.25,0,0,1,25.52,36.21Z"/><path class="cls-1" d="M23.72,28.59a1.15,1.15,0,0,0-.13,1c.07.14-.07.17-.15.23-.42.27-.47.56-.15.94a3,3,0,0,1,.49,1c-.27-.11-.55-.22-.82-.35a.66.66,0,0,1-.42-.69,7.61,7.61,0,0,1,.22-1.64.41.41,0,0,1,.41-.38C23.36,28.67,23.54,28.62,23.72,28.59Z"/><path class="cls-50" d="M24,22.11c0,.15-.1.25-.24.24s-.24-.11-.24-.26.08-.25.23-.24A.25.25,0,0,1,24,22.11Z"/><path class="cls-51" d="M25.6,23.13a.23.23,0,0,1,.23-.24.25.25,0,0,1,.26.23.24.24,0,0,1-.25.23C25.7,23.36,25.62,23.27,25.6,23.13Z"/><path class="cls-1" d="M2.73,20.33A5.57,5.57,0,0,0,6,20.13c.11.26.08.57.27.81.06.09,0,.18-.08.25a2.19,2.19,0,0,1-2.17,1A9.3,9.3,0,0,1,3,22c-.17-.05-.27-.13-.26-.32Z"/><path class="cls-27" d="M24.64,19.34c-.31.23-.71.15-1.05.3.12-.38-.17-.64-.28-1a.81.81,0,0,0-.35-.41l1.25-.3c.14,0,.29,0,.16.14a.3.3,0,0,0,0,.36,2.22,2.22,0,0,0,.23.43.4.4,0,0,1,0,.38S24.64,19.32,24.64,19.34Z"/><path class="cls-3" d="M24.65,19.28c-.23-.32-.35-.71-.61-1-.13-.14.05-.12.09-.18s.24,0,.08-.11a2,2,0,0,1,.62-.25c.19.18.38.34.56.53s.21.4-.07.6Z"/><path class="cls-52" d="M18,17.65a2.16,2.16,0,0,0-.87,1.5c-.25-.15-.46-.29-.41-.64,0-.18-.13-.32-.24-.46a1.93,1.93,0,0,1-.38-.63.56.56,0,0,1,.26-.79,1.13,1.13,0,0,1,.45-.26A7.59,7.59,0,0,0,18,17.65Z"/><path class="cls-13" d="M14.39,21.27c.15,0,.24.07.24.22a.21.21,0,0,1-.22.24c-.15,0-.23-.08-.24-.23S14.24,21.28,14.39,21.27Z"/><path class="cls-50" d="M16.81,21.24c0,.16-.1.25-.24.25a.23.23,0,0,1,0-.46A.24.24,0,0,1,16.81,21.24Z"/><path class="cls-53" d="M21,21.56a.18.18,0,0,1-.13.15c-.06,0-.11,0-.11-.07a.15.15,0,0,1,.13-.16C21,21.46,21,21.49,21,21.56Z"/><path class="cls-14" d="M21.15,21c-.06,0-.08,0-.08-.08s.05-.12.13-.14.1,0,.09.08A.18.18,0,0,1,21.15,21Z"/><path class="cls-54" d="M19.13,21.29c.08,0,.15.08.13.17s-.06.08-.11.06a.15.15,0,0,1-.12-.15A.08.08,0,0,1,19.13,21.29Z"/><path class="cls-31" d="M21.53,19.38c0,.11,0,.19-.13.18a.32.32,0,0,1-.28-.28c0-.1,0-.18.13-.17A.31.31,0,0,1,21.53,19.38Z"/><path class="cls-55" d="M21.53,18.19c0,.13-.06.19-.16.17a.32.32,0,0,1-.25-.32c0-.08,0-.16.12-.15A.4.4,0,0,1,21.53,18.19Z"/><path class="cls-14" d="M19.47,18.15c-.09,0-.19,0-.18-.13s.16-.27.33-.29.18,0,.16.14S19.62,18.11,19.47,18.15Z"/><path class="cls-31" d="M19.56,19.07a.36.36,0,0,1-.33.27c-.1,0-.18,0-.16-.15a.33.33,0,0,1,.33-.27C19.49,18.92,19.56,19,19.56,19.07Z"/><path class="cls-56" d="M22.77,14.67a.39.39,0,0,1,.14.43,1.2,1.2,0,0,1-.24.15,4.54,4.54,0,0,1-2.34.2,1.9,1.9,0,0,1-1-.53,1,1,0,0,1,.07-.5,2,2,0,0,0,.81.12Z"/><g class="cls-57"><path class="cls-58" d="M36.49,34.76l3-17.91h4.61l3.58,9.55,3.57-9.55h4.6l3,17.91H54.3L52.76,24.45,48.53,34.76H46.68l-4-10.31L41.12,34.76Z"/><path class="cls-58" d="M66.2,26.16l-6.53-9.31h5.56l3.32,4.89,3.3-4.89h5.56l-6.56,9.31v8.6H66.2Z"/><path class="cls-58" d="M91.78,23.76H98.5V16.85h4.65V34.76H98.5V27.37H91.78v7.39H87.12V16.85h4.66Z"/><path class="cls-58" d="M117.1,20.79h-5.54v3h5.23v3.95h-5.23v3.08h5.54v3.95H106.91V16.85H117.1Z"/><path class="cls-58" d="M135.34,34.76h-5.8l-4.44-6.89v6.89h-4.66V16.85h7.25a7.13,7.13,0,0,1,2.61.44,4.92,4.92,0,0,1,2.93,2.95,6.06,6.06,0,0,1,.37,2.14,5.32,5.32,0,0,1-1,3.32,5,5,0,0,1-2.91,1.72ZM125.1,24.85H126a3.38,3.38,0,0,0,2.11-.57,2.19,2.19,0,0,0,0-3.28,3.38,3.38,0,0,0-2.11-.57h-.88Z"/><path class="cls-58" d="M136.14,25.8a9.32,9.32,0,0,1,2.78-6.72,9.52,9.52,0,0,1,3.12-2,11.47,11.47,0,0,1,8,0,9.61,9.61,0,0,1,3.14,2,9.29,9.29,0,0,1,2.06,3,9.84,9.84,0,0,1,0,7.44,9.08,9.08,0,0,1-2.06,3,9.3,9.3,0,0,1-3.14,2,11.47,11.47,0,0,1-8,0,9.21,9.21,0,0,1-5.16-5A9.39,9.39,0,0,1,136.14,25.8Zm4.87,0a4.9,4.9,0,0,0,3.1,4.57,5.21,5.21,0,0,0,5.49-1,4.89,4.89,0,0,0,1.1-1.57,4.94,4.94,0,0,0,0-3.94,5.11,5.11,0,0,0-1.1-1.57,5.26,5.26,0,0,0-1.62-1,5.14,5.14,0,0,0-5.47,1,5.11,5.11,0,0,0-1.1,1.57A4.92,4.92,0,0,0,141,25.8Z"/><path class="cls-58" d="M158.82,32.48A2.82,2.82,0,0,1,159,31.4a2.76,2.76,0,0,1,.59-.9,2.71,2.71,0,0,1,.89-.59,2.88,2.88,0,0,1,2.16,0,2.71,2.71,0,0,1,.89.59,2.63,2.63,0,0,1,.6.9,2.88,2.88,0,0,1,0,2.16A2.75,2.75,0,0,1,162.68,35a2.88,2.88,0,0,1-2.16,0,2.71,2.71,0,0,1-.89-.59,2.84,2.84,0,0,1-.81-2Zm.55-3.8V16.85h4.47V28.68Z"/></g><path class="cls-59" d="M37.11,35.61l3-17.91h4.61l3.58,9.55,3.57-9.55h4.6l3,17.91H54.92L53.38,25.3,49.15,35.61H47.3l-4-10.31L41.74,35.61Z"/><path class="cls-59" d="M66.82,27,60.29,17.7h5.56l3.32,4.89,3.3-4.89H78L71.48,27v8.6H66.82Z"/><path class="cls-59" d="M92.4,24.61h6.72V17.7h4.66V35.61H99.12V28.22H92.4v7.39H87.74V17.7H92.4Z"/><path class="cls-59" d="M117.72,21.64h-5.54v3h5.23v3.94h-5.23v3.09h5.54v3.94H107.53V17.7h10.19Z"/><path class="cls-59" d="M136,35.61h-5.8l-4.44-6.89v6.89h-4.65V17.7h7.24a7.13,7.13,0,0,1,2.61.44,4.9,4.9,0,0,1,1.84,1.2,5,5,0,0,1,1.1,1.76,6.24,6.24,0,0,1,.36,2.14,5.29,5.29,0,0,1-1,3.31,5,5,0,0,1-2.91,1.72Zm-10.24-9.9h.88a3.38,3.38,0,0,0,2.11-.57,2.19,2.19,0,0,0,0-3.28,3.38,3.38,0,0,0-2.11-.57h-.88Z"/><path class="cls-59" d="M136.76,26.66a9.2,9.2,0,0,1,5.91-8.73,11.3,11.3,0,0,1,8,0,9.33,9.33,0,0,1,3.14,2,9.22,9.22,0,0,1,2.06,3,9.7,9.7,0,0,1,0,7.43,9.22,9.22,0,0,1-2.06,3,9.33,9.33,0,0,1-3.14,2,11.3,11.3,0,0,1-8,0,9.27,9.27,0,0,1-5.91-8.72Zm4.87,0a4.76,4.76,0,0,0,.41,2,5,5,0,0,0,2.69,2.6,5.24,5.24,0,0,0,3.87,0,5.11,5.11,0,0,0,1.62-1,4.88,4.88,0,0,0,0-7.07,5.11,5.11,0,0,0-1.62-1,5.38,5.38,0,0,0-3.87,0,5,5,0,0,0-2.69,2.6A4.81,4.81,0,0,0,141.63,26.66Z"/><path class="cls-59" d="M159.45,33.33a2.81,2.81,0,0,1,.21-1.08,2.71,2.71,0,0,1,.59-.89,3,3,0,0,1,.89-.6,2.88,2.88,0,0,1,2.16,0,3.08,3.08,0,0,1,.9.6,2.71,2.71,0,0,1,.59.89,2.88,2.88,0,0,1,0,2.16,2.71,2.71,0,0,1-.59.89,2.87,2.87,0,0,1-.9.59,2.76,2.76,0,0,1-2.16,0,2.82,2.82,0,0,1-.89-.59,2.71,2.71,0,0,1-.59-.89A2.81,2.81,0,0,1,159.45,33.33Zm.54-3.8V17.7h4.47V29.53Z"/></g></g></svg>